<svg width="12" height="20" viewBox="0 0 12 20" fill="none" xmlns="http://www.w3.org/2000/svg">
<path d="M10.4679 1.71197L7.83691 6.51197C7.79076 6.59228 7.72633 6.66058 7.64883 6.71131C7.57134 6.76205 7.48297 6.79379 7.39091 6.80397L1.50891 7.56997C1.40482 7.5737 1.30422 7.60849 1.22006 7.66986C1.13591 7.73122 1.07203 7.81636 1.03665 7.91433C1.00127 8.01229 0.996009 8.1186 1.02154 8.21958C1.04707 8.32056 1.10222 8.41159 1.17991 8.48097L5.43591 12.215C5.50366 12.2717 5.55517 12.3453 5.58521 12.4284C5.61525 12.5115 5.62273 12.601 5.60691 12.688L4.60691 17.96C4.59752 18.0652 4.6169 18.171 4.66298 18.2661C4.70906 18.3611 4.78012 18.4419 4.86854 18.4997C4.95696 18.5575 5.05943 18.5902 5.165 18.5943C5.27057 18.5984 5.37527 18.5738 5.46791 18.523L10.7289 16.034C10.8137 15.9941 10.9062 15.9733 10.9999 15.973V1.41397C10.8927 1.41156 10.7868 1.43794 10.6932 1.49035C10.5997 1.54276 10.5219 1.61929 10.4679 1.71197Z" stroke="#2F2F38" stroke-width="2" stroke-linecap="round" stroke-linejoin="round"/>
</svg>
